<mxfile host="app.diagrams.net" modified="2023-04-29T07:18:55.325Z" agent="Mozilla/5.0 (Windows NT 10.0; Win64; x64) AppleWebKit/537.36 (KHTML, like Gecko) Chrome/112.0.0.0 Safari/537.36" etag="0kxRoyQAP7pfBJd-VAoY" version="21.2.3" type="google">
  <diagram name="Page-1" id="WPGSIs6FBVNWXuj0fd_7">
    <mxGraphModel grid="1" page="1" gridSize="10" guides="1" tooltips="1" connect="1" arrows="1" fold="1" pageScale="1" pageWidth="850" pageHeight="1100" math="0" shadow="0">
      <root>
        <mxCell id="0" />
        <mxCell id="1" parent="0" />
        <mxCell id="0eKOFSKiYsBPbxAHF5QG-13" style="edgeStyle=orthogonalEdgeStyle;rounded=0;orthogonalLoop=1;jettySize=auto;html=1;" edge="1" parent="1">
          <mxGeometry relative="1" as="geometry">
            <mxPoint x="435" y="180" as="targetPoint" />
            <mxPoint x="435" y="210" as="sourcePoint" />
          </mxGeometry>
        </mxCell>
        <mxCell id="0eKOFSKiYsBPbxAHF5QG-1" value="S1" style="shape=umlActor;verticalLabelPosition=bottom;verticalAlign=top;html=1;outlineConnect=0;" vertex="1" parent="1">
          <mxGeometry x="425" y="220" width="20" height="40" as="geometry" />
        </mxCell>
        <mxCell id="0eKOFSKiYsBPbxAHF5QG-2" value="S2" style="shape=umlActor;verticalLabelPosition=bottom;verticalAlign=top;html=1;outlineConnect=0;" vertex="1" parent="1">
          <mxGeometry x="142" y="284.5" width="20" height="40" as="geometry" />
        </mxCell>
        <mxCell id="0eKOFSKiYsBPbxAHF5QG-6" value="&lt;font style=&quot;font-size: 24px;&quot;&gt;&amp;lt;&amp;gt;&lt;/font&gt;" style="shape=note;whiteSpace=wrap;html=1;backgroundOutline=1;darkOpacity=0.05;size=18;fillColor=#f5f5f5;fontColor=#333333;strokeColor=#666666;" vertex="1" parent="1">
          <mxGeometry x="404.5" y="40" width="55" height="70" as="geometry" />
        </mxCell>
        <mxCell id="0eKOFSKiYsBPbxAHF5QG-7" value="" style="shape=image;html=1;verticalAlign=top;verticalLabelPosition=bottom;labelBackgroundColor=#ffffff;imageAspect=0;aspect=fixed;image=https://cdn4.iconfinder.com/data/icons/aiga-symbol-signs/441/aiga_cashier-128.png" vertex="1" parent="1">
          <mxGeometry x="470" y="50" width="28" height="28" as="geometry" />
        </mxCell>
        <mxCell id="0eKOFSKiYsBPbxAHF5QG-8" value="" style="shape=image;html=1;verticalAlign=top;verticalLabelPosition=bottom;labelBackgroundColor=#ffffff;imageAspect=0;aspect=fixed;image=https://cdn4.iconfinder.com/data/icons/aiga-symbol-signs/441/aiga_cashier-128.png" vertex="1" parent="1">
          <mxGeometry x="470" y="78" width="28" height="28" as="geometry" />
        </mxCell>
        <mxCell id="0eKOFSKiYsBPbxAHF5QG-9" value="" style="endArrow=none;html=1;rounded=0;" edge="1" parent="1" source="0eKOFSKiYsBPbxAHF5QG-14">
          <mxGeometry width="50" height="50" relative="1" as="geometry">
            <mxPoint x="200" y="160" as="sourcePoint" />
            <mxPoint x="680" y="160" as="targetPoint" />
          </mxGeometry>
        </mxCell>
        <mxCell id="0eKOFSKiYsBPbxAHF5QG-10" value="C&lt;sub style=&quot;font-size: 14px;&quot;&gt;0&lt;/sub&gt;" style="text;html=1;strokeColor=none;fillColor=none;align=center;verticalAlign=middle;whiteSpace=wrap;rounded=0;fontSize=14;" vertex="1" parent="1">
          <mxGeometry x="170" y="170" width="60" height="30" as="geometry" />
        </mxCell>
        <mxCell id="0eKOFSKiYsBPbxAHF5QG-11" value="C&lt;sub style=&quot;font-size: 14px;&quot;&gt;N&lt;/sub&gt;" style="text;html=1;strokeColor=none;fillColor=none;align=center;verticalAlign=middle;whiteSpace=wrap;rounded=0;fontSize=14;" vertex="1" parent="1">
          <mxGeometry x="650" y="160" width="60" height="30" as="geometry" />
        </mxCell>
        <mxCell id="0eKOFSKiYsBPbxAHF5QG-15" value="S2" style="shape=umlActor;verticalLabelPosition=bottom;verticalAlign=top;html=1;outlineConnect=0;" vertex="1" parent="1">
          <mxGeometry x="140" y="144.5" width="20" height="40" as="geometry" />
        </mxCell>
        <mxCell id="0eKOFSKiYsBPbxAHF5QG-16" value="" style="endArrow=none;html=1;rounded=0;" edge="1" parent="1" source="0eKOFSKiYsBPbxAHF5QG-22">
          <mxGeometry width="50" height="50" relative="1" as="geometry">
            <mxPoint x="187" y="300" as="sourcePoint" />
            <mxPoint x="392" y="300" as="targetPoint" />
          </mxGeometry>
        </mxCell>
        <mxCell id="0eKOFSKiYsBPbxAHF5QG-17" value="" style="endArrow=none;html=1;rounded=0;" edge="1" parent="1">
          <mxGeometry width="50" height="50" relative="1" as="geometry">
            <mxPoint x="482" y="300" as="sourcePoint" />
            <mxPoint x="687" y="300" as="targetPoint" />
          </mxGeometry>
        </mxCell>
        <mxCell id="0eKOFSKiYsBPbxAHF5QG-18" value="C&lt;sub style=&quot;font-size: 14px;&quot;&gt;0&lt;/sub&gt;" style="text;html=1;strokeColor=none;fillColor=none;align=center;verticalAlign=middle;whiteSpace=wrap;rounded=0;fontSize=14;" vertex="1" parent="1">
          <mxGeometry x="182" y="310" width="20" height="30" as="geometry" />
        </mxCell>
        <mxCell id="0eKOFSKiYsBPbxAHF5QG-19" value="C&lt;sub&gt;N/2&amp;nbsp;&lt;/sub&gt;- 1" style="text;html=1;strokeColor=none;fillColor=none;align=center;verticalAlign=middle;whiteSpace=wrap;rounded=0;fontSize=14;" vertex="1" parent="1">
          <mxGeometry x="352.5" y="310" width="60" height="30" as="geometry" />
        </mxCell>
        <mxCell id="0eKOFSKiYsBPbxAHF5QG-20" value="C&lt;sub style=&quot;font-size: 14px;&quot;&gt;N&lt;/sub&gt;" style="text;html=1;strokeColor=none;fillColor=none;align=center;verticalAlign=middle;whiteSpace=wrap;rounded=0;fontSize=14;" vertex="1" parent="1">
          <mxGeometry x="662" y="310" width="60" height="30" as="geometry" />
        </mxCell>
        <mxCell id="0eKOFSKiYsBPbxAHF5QG-21" value="C&lt;sub&gt;N/2&lt;/sub&gt;" style="text;html=1;strokeColor=none;fillColor=none;align=center;verticalAlign=middle;whiteSpace=wrap;rounded=0;fontSize=14;" vertex="1" parent="1">
          <mxGeometry x="452" y="310" width="60" height="30" as="geometry" />
        </mxCell>
        <mxCell id="0eKOFSKiYsBPbxAHF5QG-23" value="" style="endArrow=none;html=1;rounded=0;" edge="1" parent="1" target="0eKOFSKiYsBPbxAHF5QG-22">
          <mxGeometry width="50" height="50" relative="1" as="geometry">
            <mxPoint x="187" y="300" as="sourcePoint" />
            <mxPoint x="392" y="300" as="targetPoint" />
          </mxGeometry>
        </mxCell>
        <mxCell id="0eKOFSKiYsBPbxAHF5QG-22" value="" style="shape=image;html=1;verticalAlign=top;verticalLabelPosition=bottom;labelBackgroundColor=#ffffff;imageAspect=0;aspect=fixed;image=https://cdn4.iconfinder.com/data/icons/ui-office/512/User_Interface-03-128.png" vertex="1" parent="1">
          <mxGeometry x="272" y="280" width="49" height="49" as="geometry" />
        </mxCell>
        <mxCell id="0eKOFSKiYsBPbxAHF5QG-26" style="edgeStyle=orthogonalEdgeStyle;rounded=0;orthogonalLoop=1;jettySize=auto;html=1;entryX=0.5;entryY=1;entryDx=0;entryDy=0;" edge="1" parent="1" target="0eKOFSKiYsBPbxAHF5QG-22">
          <mxGeometry relative="1" as="geometry">
            <mxPoint x="297" y="360" as="sourcePoint" />
          </mxGeometry>
        </mxCell>
        <mxCell id="0eKOFSKiYsBPbxAHF5QG-24" value="S1" style="shape=umlActor;verticalLabelPosition=bottom;verticalAlign=top;html=1;outlineConnect=0;" vertex="1" parent="1">
          <mxGeometry x="286.5" y="370" width="20" height="40" as="geometry" />
        </mxCell>
        <mxCell id="0eKOFSKiYsBPbxAHF5QG-25" value="" style="endArrow=none;html=1;rounded=0;" edge="1" parent="1" target="0eKOFSKiYsBPbxAHF5QG-14">
          <mxGeometry width="50" height="50" relative="1" as="geometry">
            <mxPoint x="200" y="160" as="sourcePoint" />
            <mxPoint x="680" y="160" as="targetPoint" />
          </mxGeometry>
        </mxCell>
        <mxCell id="0eKOFSKiYsBPbxAHF5QG-14" value="" style="shape=image;html=1;verticalAlign=top;verticalLabelPosition=bottom;labelBackgroundColor=#ffffff;imageAspect=0;aspect=fixed;image=https://cdn4.iconfinder.com/data/icons/ui-office/512/User_Interface-03-128.png" vertex="1" parent="1">
          <mxGeometry x="410.5" y="135.5" width="49" height="49" as="geometry" />
        </mxCell>
        <mxCell id="0eKOFSKiYsBPbxAHF5QG-30" value="" style="endArrow=none;html=1;rounded=0;" edge="1" parent="1" source="0eKOFSKiYsBPbxAHF5QG-34">
          <mxGeometry width="50" height="50" relative="1" as="geometry">
            <mxPoint x="484.5" y="470" as="sourcePoint" />
            <mxPoint x="689.5" y="470" as="targetPoint" />
          </mxGeometry>
        </mxCell>
        <mxCell id="0eKOFSKiYsBPbxAHF5QG-31" value="C&lt;sub&gt;N/4&lt;/sub&gt; + 1" style="text;html=1;strokeColor=none;fillColor=none;align=center;verticalAlign=middle;whiteSpace=wrap;rounded=0;fontSize=14;" vertex="1" parent="1">
          <mxGeometry x="479.5" y="480" width="60.5" height="30" as="geometry" />
        </mxCell>
        <mxCell id="0eKOFSKiYsBPbxAHF5QG-32" value="C&lt;sub&gt;N/2&amp;nbsp;&lt;/sub&gt;" style="text;html=1;strokeColor=none;fillColor=none;align=center;verticalAlign=middle;whiteSpace=wrap;rounded=0;fontSize=14;" vertex="1" parent="1">
          <mxGeometry x="662" y="480" width="60" height="30" as="geometry" />
        </mxCell>
        <mxCell id="0eKOFSKiYsBPbxAHF5QG-33" value="" style="endArrow=none;html=1;rounded=0;" edge="1" parent="1" target="0eKOFSKiYsBPbxAHF5QG-34">
          <mxGeometry width="50" height="50" relative="1" as="geometry">
            <mxPoint x="484.5" y="470" as="sourcePoint" />
            <mxPoint x="689.5" y="470" as="targetPoint" />
          </mxGeometry>
        </mxCell>
        <mxCell id="0eKOFSKiYsBPbxAHF5QG-34" value="" style="shape=image;html=1;verticalAlign=top;verticalLabelPosition=bottom;labelBackgroundColor=#ffffff;imageAspect=0;aspect=fixed;image=https://cdn4.iconfinder.com/data/icons/ui-office/512/User_Interface-03-128.png" vertex="1" parent="1">
          <mxGeometry x="569.5" y="450" width="49" height="49" as="geometry" />
        </mxCell>
        <mxCell id="0eKOFSKiYsBPbxAHF5QG-35" style="edgeStyle=orthogonalEdgeStyle;rounded=0;orthogonalLoop=1;jettySize=auto;html=1;entryX=0.5;entryY=1;entryDx=0;entryDy=0;" edge="1" parent="1" target="0eKOFSKiYsBPbxAHF5QG-34">
          <mxGeometry relative="1" as="geometry">
            <mxPoint x="594.5" y="530" as="sourcePoint" />
          </mxGeometry>
        </mxCell>
        <mxCell id="0eKOFSKiYsBPbxAHF5QG-36" value="S1" style="shape=umlActor;verticalLabelPosition=bottom;verticalAlign=top;html=1;outlineConnect=0;" vertex="1" parent="1">
          <mxGeometry x="584" y="540" width="20" height="40" as="geometry" />
        </mxCell>
        <mxCell id="0eKOFSKiYsBPbxAHF5QG-37" value="" style="endArrow=none;html=1;rounded=0;" edge="1" parent="1">
          <mxGeometry width="50" height="50" relative="1" as="geometry">
            <mxPoint x="190" y="470" as="sourcePoint" />
            <mxPoint x="395" y="470" as="targetPoint" />
          </mxGeometry>
        </mxCell>
        <mxCell id="0eKOFSKiYsBPbxAHF5QG-38" value="C&lt;sub style=&quot;font-size: 14px;&quot;&gt;N/4&lt;/sub&gt;" style="text;html=1;strokeColor=none;fillColor=none;align=center;verticalAlign=middle;whiteSpace=wrap;rounded=0;fontSize=14;" vertex="1" parent="1">
          <mxGeometry x="370" y="480" width="60" height="30" as="geometry" />
        </mxCell>
        <mxCell id="0eKOFSKiYsBPbxAHF5QG-39" value="C&lt;span style=&quot;font-size: 11.6667px;&quot;&gt;0&lt;/span&gt;" style="text;html=1;strokeColor=none;fillColor=none;align=center;verticalAlign=middle;whiteSpace=wrap;rounded=0;fontSize=14;" vertex="1" parent="1">
          <mxGeometry x="160" y="480" width="60" height="30" as="geometry" />
        </mxCell>
        <mxCell id="0eKOFSKiYsBPbxAHF5QG-40" value="S2" style="shape=umlActor;verticalLabelPosition=bottom;verticalAlign=top;html=1;outlineConnect=0;" vertex="1" parent="1">
          <mxGeometry x="140" y="454.5" width="20" height="40" as="geometry" />
        </mxCell>
        <mxCell id="0eKOFSKiYsBPbxAHF5QG-41" value="" style="shape=image;html=1;verticalAlign=top;verticalLabelPosition=bottom;labelBackgroundColor=#ffffff;imageAspect=0;aspect=fixed;image=https://cdn4.iconfinder.com/data/icons/essential-app-1/16/dot-more-menu-hide-128.png" vertex="1" parent="1">
          <mxGeometry x="404.5" y="650" width="46" height="46" as="geometry" />
        </mxCell>
        <mxCell id="0eKOFSKiYsBPbxAHF5QG-43" value="" style="endArrow=none;html=1;rounded=0;" edge="1" parent="1" source="0eKOFSKiYsBPbxAHF5QG-47">
          <mxGeometry width="50" height="50" relative="1" as="geometry">
            <mxPoint x="315.75" y="740" as="sourcePoint" />
            <mxPoint x="520.75" y="740" as="targetPoint" />
          </mxGeometry>
        </mxCell>
        <mxCell id="0eKOFSKiYsBPbxAHF5QG-44" value="C&lt;span style=&quot;font-size: 11.6667px;&quot;&gt;i&lt;/span&gt;" style="text;html=1;strokeColor=none;fillColor=none;align=center;verticalAlign=middle;whiteSpace=wrap;rounded=0;fontSize=14;" vertex="1" parent="1">
          <mxGeometry x="310.75" y="750" width="60.5" height="30" as="geometry" />
        </mxCell>
        <mxCell id="0eKOFSKiYsBPbxAHF5QG-45" value="C&lt;sub&gt;i+1&lt;/sub&gt;" style="text;html=1;strokeColor=none;fillColor=none;align=center;verticalAlign=middle;whiteSpace=wrap;rounded=0;fontSize=14;" vertex="1" parent="1">
          <mxGeometry x="493.25" y="750" width="60" height="30" as="geometry" />
        </mxCell>
        <mxCell id="0eKOFSKiYsBPbxAHF5QG-46" value="" style="endArrow=none;html=1;rounded=0;" edge="1" parent="1" target="0eKOFSKiYsBPbxAHF5QG-47">
          <mxGeometry width="50" height="50" relative="1" as="geometry">
            <mxPoint x="315.75" y="740" as="sourcePoint" />
            <mxPoint x="520.75" y="740" as="targetPoint" />
          </mxGeometry>
        </mxCell>
        <mxCell id="0eKOFSKiYsBPbxAHF5QG-47" value="" style="shape=image;html=1;verticalAlign=top;verticalLabelPosition=bottom;labelBackgroundColor=#ffffff;imageAspect=0;aspect=fixed;image=https://cdn4.iconfinder.com/data/icons/ui-office/512/User_Interface-03-128.png" vertex="1" parent="1">
          <mxGeometry x="400.75" y="720" width="49" height="49" as="geometry" />
        </mxCell>
        <mxCell id="0eKOFSKiYsBPbxAHF5QG-48" style="edgeStyle=orthogonalEdgeStyle;rounded=0;orthogonalLoop=1;jettySize=auto;html=1;entryX=0.5;entryY=1;entryDx=0;entryDy=0;" edge="1" parent="1" target="0eKOFSKiYsBPbxAHF5QG-47">
          <mxGeometry relative="1" as="geometry">
            <mxPoint x="425.75" y="800" as="sourcePoint" />
          </mxGeometry>
        </mxCell>
        <mxCell id="0eKOFSKiYsBPbxAHF5QG-49" value="S1" style="shape=umlActor;verticalLabelPosition=bottom;verticalAlign=top;html=1;outlineConnect=0;" vertex="1" parent="1">
          <mxGeometry x="415.25" y="810" width="20" height="40" as="geometry" />
        </mxCell>
        <mxCell id="0eKOFSKiYsBPbxAHF5QG-50" value="S2" style="shape=umlActor;verticalLabelPosition=bottom;verticalAlign=top;html=1;outlineConnect=0;" vertex="1" parent="1">
          <mxGeometry x="250" y="720" width="20" height="40" as="geometry" />
        </mxCell>
        <mxCell id="0eKOFSKiYsBPbxAHF5QG-51" value="" style="shape=image;html=1;verticalAlign=top;verticalLabelPosition=bottom;labelBackgroundColor=#ffffff;imageAspect=0;aspect=fixed;image=https://cdn0.iconfinder.com/data/icons/web-development-and-studio/512/17_Law_Action_auction_court_gavel_hammer_judge_legal-128.png" vertex="1" parent="1">
          <mxGeometry x="397.5" y="900" width="62" height="62" as="geometry" />
        </mxCell>
      </root>
    </mxGraphModel>
  </diagram>
</mxfile>
